<svg width="1003" height="958" viewBox="0 0 1003 958" fill="none" xmlns="http://www.w3.org/2000/svg">
<path d="M545.597 154.16C551.033 153.492 563.218 153.798 569.237 153.796L612.834 153.801L755.134 153.811C759.052 159.21 771.149 169.781 776.223 175.446C778.564 178.055 788.481 188.273 790.661 189.956C791.459 203.333 790.798 223.775 790.773 237.687L790.798 324.061C791.131 421.537 790.886 519.015 790.053 616.485C785.518 615.97 776.605 616.235 771.81 616.264L741.03 616.313L634.588 616.284C628.702 611.063 621.669 603.109 616.218 597.271L601.148 581.167C600.105 535.657 602.804 489.593 601.81 443.989C601.437 426.939 602.054 409.746 601.658 392.654C599.263 394.618 597.098 396.734 594.88 398.888C575.824 417.403 557.36 436.546 538.662 455.415C530.302 463.851 521.957 472.858 513.151 480.762C506.187 481.128 496.642 480.887 489.504 480.885L447.606 480.9C441.098 475.475 431.466 465.004 425.185 458.609L383.4 416.593C376.516 409.689 366.281 398.793 359.091 392.673C358.54 412.35 359.038 434.443 359.039 454.276L358.99 580.814L206.408 580.893C212.049 585.639 215.119 590.154 220.498 595.057L359.149 594.974C358.965 602.1 359.108 609.241 358.912 616.46C334.032 617.724 303.738 616.96 278.485 616.96L248.858 616.911C242.845 616.945 234.596 617.273 228.844 616.705C218.165 607.012 204.884 591.927 194.853 581.094C194.214 570.637 194.535 557.153 194.549 546.427L194.711 477.619L194.031 261.998C194.023 226.275 194.73 189.543 194.042 153.935C221.856 153.042 253.694 153.801 281.763 153.81L414.595 153.873C426.685 165.089 439.492 179.183 451.193 191.038C457.389 197.315 467.035 206.808 472.545 213.227C473.255 235.323 472.651 260.93 472.648 283.286L472.693 425.165L487.91 425.235L487.965 291.256C487.966 265.541 487.607 238.84 488.209 213.198C491.832 209.057 495.74 205.464 499.526 201.499L533.794 166.109C537.707 162.071 541.835 158.33 545.597 154.16ZM750.306 580.878C705.371 580.966 657.827 579.928 613.113 580.947C615.728 583.513 625.366 594.327 627.276 595.013L765.434 594.974L766.021 177.181C762.951 174.378 754.581 166.349 751.657 164.278L750.506 428.734L750.462 526.317C750.477 543.827 750.928 563.52 750.306 580.878Z" fill="black"/>
<path d="M355.523 646.146C368.674 646.856 387.593 646.234 401.361 646.214L490.647 646.048C491.069 670.238 490.393 695.412 490.192 719.734C484.218 725.793 476.121 732.875 469.692 738.703C476.877 744.15 490.985 758.975 498.312 766.096C498.552 771.695 498.464 776.852 498.376 782.45C496.25 782.254 494.095 782.347 491.965 782.323C479.192 782.166 466.416 782.504 453.646 782.352C451.662 780.721 449.537 778.586 447.741 776.705C438.122 766.62 427.263 757.143 417.878 746.907C415.345 744.331 412.218 741.495 409.57 738.963C409.808 731.322 409.779 724.186 409.627 716.541C409.534 711.815 410.005 707.554 409.617 702.705L449.05 702.695C448.764 697.694 448.875 693.526 449.002 688.545L396.674 688.565L396.568 782.665C390.254 782.837 383.936 782.857 377.621 782.734C371.313 782.558 361.108 782.048 354.922 782.661C354.385 768.305 354.775 751.227 354.826 736.754L355.523 646.146Z" fill="black"/>
<path d="M149.762 646.234C164.247 645.793 180.624 646.18 195.288 646.097C195.385 691.7 194.561 737.2 194.963 782.945C190.725 782.538 179.25 782.93 174.524 782.954C168.476 782.989 158.508 782.592 152.9 783.052C152.653 773.57 152.816 763.471 152.804 753.945L152.786 708.102C144.041 715.003 134.47 727.625 125.917 734.173C121.83 734.374 119.175 734.305 115.072 734.08C107.145 727.958 96.5589 714.121 88.5692 708.347L88.5707 751.246C88.5741 761.213 88.8552 772.885 88.316 782.729C75.4734 783.141 59.5704 782.239 47.4922 783.067L47.9461 646.165C60.3686 646.356 78.3889 645.538 90.252 646.488C98.4317 653.571 112.364 667.867 120.091 675.792C129.311 667.255 140.428 655.392 149.762 646.234Z" fill="black"/>
<path d="M609.425 646.292C624.015 646.087 638.756 646.146 653.356 646.131C653.517 665.35 653.111 684.456 653.047 703.67L653.076 782.406L626.655 782.376C622.492 782.381 615.057 782.176 611.159 782.71L611.149 755.845L611.188 707.955C602.941 716.805 593.362 725.171 585.408 734.129C581.451 734.33 577.944 734.29 573.977 734.236C565.133 725.852 556.366 716.8 547.761 708.136C547.051 726.273 547.864 745.707 547.575 763.976C547.477 770.171 548.104 776.014 547.81 782.337C535.39 782.489 518.793 782.685 506.505 782.156C506.059 736.773 507.612 691.499 507.152 646.19C520.865 646.19 535.772 645.94 549.324 646.268L566.847 663.439C571.161 667.715 574.781 671.78 579.595 675.517C587.191 667.093 601.247 653.928 609.425 646.292Z" fill="black"/>
<path d="M904.659 645.768C917.598 645.44 930.664 645.93 943.765 645.548C943.598 654.433 944.034 662.891 944.142 671.727L944.705 719.671C938.338 725.959 931.864 732.135 925.282 738.194C925.434 738.297 925.585 738.405 925.742 738.507C930.101 741.363 966.93 778.003 969.477 782.543C954.858 783.351 925.786 783.493 911.05 782.768C900.775 773.105 890.911 762.173 880.891 752.231C876.42 747.794 871.777 742.602 866.889 738.708C866.292 727.914 866.752 712.745 866.826 701.701C874.476 701.539 882.125 701.451 889.78 701.446L904.066 701.461L904.13 686.753C887.483 686.454 870.42 686.885 853.671 686.694L853.642 755.782C853.627 764.142 854.19 774.506 853.921 782.386C843.852 782.357 823.003 781.74 813.879 782.666C813.659 774.545 813.483 766.302 813.585 758.182C814.07 720.978 812.723 683.305 813.933 646.151C817.934 646.317 822.489 646.263 826.505 646.17C852.393 645.563 878.844 646.851 904.659 645.768Z" fill="black"/>
<path d="M298.501 646.195C308.673 646.812 328.819 646.234 339.435 646.106C339.614 662.627 339.118 679.083 339.021 695.603L338.733 782.739C318.306 783.719 291.051 782.925 270.1 782.964L239.455 783.023C233.31 783.033 225.68 783.268 219.698 782.626C215.774 779.11 212.695 774.78 209.56 770.563C208.635 754.45 210.215 730.152 210.597 713.235C211.081 691.827 209.974 667.152 211.072 646.312L217.141 646.244C226.672 645.808 240.298 646.214 250.211 646.155L250.156 742.528L298.265 742.396C298.246 711.163 297.544 677.153 298.501 646.195Z" fill="black"/>
<path d="M756.638 646.214C770.351 646.253 784.064 646.209 797.777 646.077C797.855 661.769 797.801 677.462 797.615 693.154C797.057 722.404 798.174 753.539 797.052 782.357C766.188 782.714 735.173 781.965 704.289 782.283C695.513 782.372 686.57 782.504 677.804 782.352C674.851 779.164 670.051 774.006 667.637 770.617C669.16 729.295 668.837 687.654 669.082 646.317C671.344 646.361 673.832 646.273 676.114 646.243C684.504 645.999 700.984 646.91 708.56 646.062C708.79 668.851 708.658 691.646 708.158 714.435C708.016 723.545 708.276 733.007 707.899 742.063L756.477 742.024C755.982 732.596 756.442 718.965 756.447 709.077C756.403 688.124 756.467 667.167 756.638 646.214Z" fill="black"/>
</svg>
