<svg width="1254" height="1254" viewBox="0 0 1254 1254" fill="none" xmlns="http://www.w3.org/2000/svg">
<path d="M739.015 250.133L850.889 250.112C870.605 250.097 892.471 249.633 911.991 250.443C918.806 256.362 927.905 266.403 934.634 272.864C938.706 276.768 950.517 288.398 953.487 292.387C954.644 303.612 953.928 330.167 953.922 342.72L953.903 440.591V671.741C953.903 712.955 953.389 755.468 954.014 796.578C914.318 795.176 869.124 796.327 828.975 796.302L798.96 796.315C793.271 796.321 785.036 796.584 779.605 795.861C767.016 782.495 754.794 768.785 742.952 754.745C742.046 727.608 743.142 698.517 743.307 671.245L743.424 535.105C736.419 543.961 720.064 560.65 711.761 569.607L650.549 636.099C646.52 636.276 642.026 636.246 637.985 636.197C619.867 635.952 601.406 636.797 583.324 636.142C575.957 629.517 564.056 615.507 556.676 607.932C533.7 584.344 511.672 558.916 488.737 535.366C488.25 554.435 488.669 576.521 488.669 595.798L488.688 713.641L488.779 796.431C479.156 795.463 458.718 796.064 448.38 796.07L381.258 796.125C369.072 796.137 355.347 796.443 343.341 795.953C334.501 785.789 318.785 765.969 310.535 755.094C309.245 723.04 310.999 684.483 311.015 651.713L311.03 384.006L311.015 303.524C311.045 286.339 311.43 267.357 310.687 250.317C370.648 249.583 430.831 250.581 490.809 250.181C506.192 250.078 521.98 249.992 537.338 250.33C542.037 253.046 554.697 267.407 559.421 272.329L608.012 323.234C608.929 349.163 608.125 377.234 608.215 403.391L608.157 572.632L626.969 572.529C627.478 552.513 627.037 530.554 627.037 510.428L627.012 391.647C627 370.983 626.927 350.158 627.086 329.489C627.331 327.028 627.055 323.079 628.702 321.102C636.007 312.346 644.573 304.381 652.472 296.158L677.999 269.765C684.263 263.218 690.043 256.531 696.693 250.349C710.604 250.068 725.061 250.195 739.015 250.133ZM911.63 756.147L811.23 756.221C794.135 756.227 775.257 755.847 758.303 756.356C762.84 761.493 772.992 775.398 779.629 775.306C830.291 775.043 882.111 775.968 932.571 775.166L932.565 462.85L932.491 345.24C932.485 325.744 931.977 303.737 932.552 284.39C929.276 281.017 914.875 265.955 911.838 264.164C911.066 296.84 911.795 332.065 911.673 365.014L911.728 637.905C911.734 677.068 912.163 717.021 911.63 756.147ZM340.069 775.233L477.874 775.196L477.629 756.227L324.824 756.184C328.772 762.081 335.4 769.655 340.069 775.233Z" fill="#FDCE03"/>
<path d="M573.556 845.899C579.239 845.893 614.001 845.391 617.393 846.444C618.949 849.285 617.797 912.303 617.571 922.039C615.293 925.205 600.018 938.308 596.061 941.817C599.467 945.888 604.858 950.572 608.819 954.295C614.662 959.861 620.467 965.47 626.241 971.109C626.486 976.877 626.645 981.8 626.535 987.599L578.542 987.574C568.433 978.028 558.448 968.348 548.588 958.545C543.375 953.426 536.181 946.893 531.609 941.523C531.094 930.122 531.494 915.959 531.5 904.356C544.607 904.38 557.714 904.319 570.821 904.178L572.521 903.945C573.71 901.423 573.252 892.955 573.195 889.862C554.677 889.501 536.042 889.844 517.505 889.722C517.909 901.159 517.606 914.526 517.604 926.074L517.514 987.488C502.617 987.605 487.72 987.635 472.823 987.58C472.657 981.384 472.674 975.059 472.743 968.856C473.194 927.954 472.781 887.046 472.813 846.15C506.289 845.617 540.029 846.101 573.556 845.899Z" fill="#FDCE03"/>
<path d="M747.631 845.905L794.178 845.917C794.307 853.724 794.251 861.788 794.092 869.595C793.29 908.783 794.913 948.478 793.67 987.611L749.547 987.672C748.996 980.906 749.363 970.681 749.376 963.572L749.455 919.731L749.461 909.964C740.656 917.802 729.984 928.934 721.455 937.396C717.664 937.579 713.329 937.469 709.496 937.451C700.501 928.536 690.98 918.592 681.496 910.362L681.538 987.58C667.174 987.856 651.817 987.629 637.422 987.531L637.428 846.107L679.64 845.905C681.061 846.003 682.898 846.083 684.018 847.026C694.991 856.29 704.867 867.342 715.619 876.979C721.332 870.348 741.226 850.326 747.631 845.905Z" fill="#FDCE03"/>
<path d="M241.332 845.923C257.02 846.083 272.709 846.003 288.394 845.685C288.838 851.544 288.993 860.257 288.806 866.154C287.531 906.456 289.617 947.425 288.468 987.641C273.668 987.543 258.867 987.556 244.067 987.678L244.117 955.299C244.442 940.169 244.09 924.819 244.173 909.646C235.767 918.592 225.192 928.927 216.285 937.402C212.759 937.628 208.989 937.524 205.438 937.506C197.016 929.583 184.814 918.286 177.087 909.879C176.598 935.179 177.015 962.059 176.998 987.439C163.765 988.015 146.929 987.562 133.433 987.556C133.546 940.996 134.1 892.63 133.313 846.187L140.056 845.874C149.64 845.899 170.68 845.329 179.037 846.266C189.333 855.861 200.111 867.023 210.474 876.955C217.443 868.909 233.359 853.057 241.332 845.923Z" fill="#FDCE03"/>
<path d="M984.984 845.887L1076.2 845.881C1082.83 845.868 1112.53 845.397 1117.33 846.566C1118.08 851.152 1117.88 864.942 1117.99 870.563C1118.45 887.768 1118.66 904.974 1118.63 922.186C1115.34 926.215 1102.48 937.696 1098.15 941.761C1102.56 945.251 1106.07 949.85 1110.19 953.303C1122.2 963.339 1134.2 978.206 1146.08 987.635C1125.04 987.727 1104.01 987.709 1082.97 987.568C1075.05 980.912 1060.24 965.482 1052.14 957.669C1048.78 955.146 1038.79 944.707 1035.73 941.302C1034.89 932.467 1035.5 912.812 1035.52 903.278C1048.51 903.07 1061.72 903.168 1074.72 903.143C1075.07 898.447 1074.88 892.691 1074.85 887.903C1057.05 887.781 1039.25 887.811 1021.45 887.983C1022.02 899.029 1021.58 912.854 1021.55 924.151C1021.39 945.294 1021.52 966.437 1021.95 987.574L977.936 987.617L977.961 888.221L977.942 862.1C977.936 858.188 977.685 850.399 978.334 846.83C980.214 845.666 982.676 845.917 984.984 845.887Z" fill="#FDCE03"/>
<path d="M323.773 845.893L352.906 845.776C353.227 878.712 352.038 913.736 353.156 946.403C371.07 945.796 389.64 946.733 407.776 946.152L407.758 846.113C422.301 845.746 437.798 845.856 452.388 845.93C452.884 862.162 451.881 880.837 451.88 897.651L451.707 987.592C408.315 987.568 363.689 988.119 320.391 987.501C317.863 985.296 309.264 976.951 309.17 973.822C308.242 943.121 309.58 912.169 309.189 881.388C309.042 869.816 309.073 857.661 309.484 846.125L323.773 845.893Z" fill="#FDCE03"/>
<path d="M854.943 845.893C857.325 845.966 857.239 845.599 858.972 846.671C859.547 849.934 859.229 868.199 859.235 872.828C859.235 897.394 858.984 921.966 858.488 946.531C876.086 946.305 896.659 945.87 914.098 946.568C914.734 913.271 913.908 879.484 914.293 846.119C928.45 845.66 944.278 845.93 958.502 846.028C957.871 872.106 957.59 898.19 957.645 924.274C957.62 944.309 957.008 967.803 957.828 987.562C914.538 988.033 870.422 987.562 827.058 987.611C823.623 984.886 818.725 979.063 815.608 975.628C814.451 967.901 815.4 941.48 815.461 931.86L815.535 846.089L854.943 845.893Z" fill="#FDCE03"/>
</svg>
