<svg width="598" height="464" viewBox="0 0 598 464" fill="none" xmlns="http://www.w3.org/2000/svg">
<path d="M351.565 0.659071C357.002 -0.00898265 369.186 0.297125 375.205 0.295655L418.803 0.300065L561.103 0.310348C565.021 5.70963 577.118 16.2809 582.192 21.9457C584.533 24.5547 594.45 34.7729 596.629 36.4552C597.428 49.8325 596.767 70.2747 596.742 84.1863L596.766 170.561C597.099 268.036 596.855 365.514 596.022 462.984C591.487 462.47 582.574 462.734 577.779 462.764L546.998 462.813L440.557 462.783C434.67 457.562 427.638 449.608 422.187 443.77L407.117 427.667C406.074 382.157 408.773 336.093 407.778 290.488C407.406 273.438 408.023 256.246 407.627 239.154C405.232 241.118 403.067 243.233 400.848 245.387C381.792 263.902 363.329 283.045 344.63 301.914C336.271 310.351 327.925 319.357 319.12 327.262C312.155 327.628 302.61 327.386 295.473 327.385L253.574 327.399C247.067 321.974 237.435 311.503 231.154 305.108L189.368 263.092C182.484 256.188 172.25 245.292 165.06 239.172C164.509 258.849 165.006 280.942 165.007 300.776L164.959 427.314L12.3765 427.392C18.0178 432.138 21.0881 436.654 26.4665 441.557L165.118 441.473C164.934 448.6 165.077 455.74 164.88 462.96C140 464.223 109.707 463.459 84.4539 463.459L54.8272 463.41C48.8136 463.445 40.5643 463.773 34.8127 463.205C24.1338 453.512 10.8529 438.427 0.821872 427.593C0.182753 417.136 0.503539 403.653 0.518231 392.927L0.679841 324.119L7.31287e-05 108.498C-0.00825256 72.7745 0.698453 36.0424 0.0108491 0.43475C27.8245 -0.4586 59.6624 0.300059 87.7317 0.309855L220.564 0.372541C232.654 11.5884 245.461 25.6827 257.162 37.5372C263.358 43.8141 273.004 53.3079 278.513 59.7269C279.223 81.8226 278.62 107.43 278.617 129.785L278.662 271.664L293.879 271.734L293.933 137.755C293.934 112.041 293.576 85.3392 294.177 59.697C297.801 55.557 301.709 51.964 305.495 47.9988L339.762 12.6086C343.675 8.5704 347.804 4.82902 351.565 0.659071ZM556.274 427.378C511.34 427.466 463.796 426.427 419.082 427.446C421.697 430.013 431.335 440.827 433.245 441.512L571.403 441.473L571.99 23.6805C568.92 20.878 560.55 12.8481 557.626 10.7778L556.475 275.233L556.431 372.817C556.446 390.326 556.896 410.02 556.274 427.378Z" fill="black"/>
</svg>
