<svg width="645" height="547" viewBox="0 0 645 547" fill="none" xmlns="http://www.w3.org/2000/svg">
<path d="M428.953 0.166601L540.828 0.145785C560.544 0.130477 582.409 -0.333047 601.93 0.477032C608.745 6.39618 617.843 16.4368 624.573 22.8978C628.644 26.8018 640.456 38.432 643.425 42.4211C644.583 53.6459 643.866 80.201 643.86 92.7538L643.842 190.625V421.775C643.842 462.989 643.328 505.502 643.952 546.612C604.256 545.21 559.062 546.361 518.913 546.336L488.898 546.349C483.21 546.355 474.974 546.618 469.543 545.895C456.954 532.529 444.733 518.819 432.891 504.779C431.984 477.642 433.08 448.551 433.246 421.279L433.362 285.139C426.357 293.995 410.003 310.683 401.7 319.641L340.488 386.133C336.459 386.31 331.964 386.28 327.923 386.231C309.805 385.986 291.344 386.831 273.262 386.176C265.896 379.551 253.994 365.541 246.615 357.966C223.639 334.378 201.61 308.95 178.675 285.4C178.188 304.469 178.608 326.555 178.608 345.832L178.626 463.675L178.717 546.465C169.094 545.497 148.656 546.097 138.319 546.104L71.1961 546.159C59.0106 546.171 45.2852 546.477 33.2792 545.987C24.4399 535.823 8.72391 516.003 0.473716 505.128C-0.817022 473.074 0.937243 434.517 0.953163 401.747L0.968467 134.04L0.953163 53.5577C0.983779 36.3728 1.3683 17.3907 0.625578 0.350902C60.5867 -0.382639 120.77 0.615408 180.748 0.21496C196.131 0.112093 211.918 0.0263777 227.276 0.363758C231.976 3.07994 244.635 17.4409 249.36 22.3626L297.951 73.2678C298.868 99.1971 298.063 127.268 298.153 153.425L298.095 322.666L316.908 322.563C317.416 302.547 316.975 280.588 316.975 260.462L316.951 141.681C316.939 121.017 316.865 100.191 317.024 79.5225C317.269 77.0623 316.994 73.1129 318.641 71.1364C325.946 62.3798 334.512 54.415 342.41 46.1917L367.937 19.7989C374.201 13.2522 379.981 6.56519 386.631 0.383359C400.543 0.102311 414.999 0.229056 428.953 0.166601ZM601.568 506.181L501.169 506.255C484.073 506.261 465.196 505.881 448.241 506.39C452.778 511.527 462.93 525.432 469.568 525.34C520.23 525.077 572.049 526.002 622.509 525.199L622.503 212.884L622.43 95.274C622.423 75.7776 621.915 53.7708 622.491 34.4238C619.215 31.0506 604.814 15.9885 601.776 14.1975C601.005 46.8744 601.734 82.0985 601.611 115.048L601.666 387.939C601.672 427.102 602.101 467.055 601.568 506.181ZM30.007 525.267L167.812 525.23L167.567 506.261L14.7625 506.218C18.7106 512.115 25.3382 519.689 30.007 525.267Z" fill="#FDCE03"/>
</svg>
