<svg width="922" height="138" viewBox="0 0 922 138" fill="none" xmlns="http://www.w3.org/2000/svg">
<path d="M308.03 0.597503C321.182 1.30768 340.101 0.685669 353.869 0.666078L443.155 0.499512C443.576 24.6895 442.901 49.864 442.7 74.1862C436.725 80.2447 428.628 87.3269 422.2 93.1552C429.385 98.6015 443.493 113.427 450.82 120.548C451.06 126.146 450.972 131.304 450.883 136.902C448.758 136.706 446.603 136.799 444.473 136.775C431.7 136.618 418.924 136.956 406.154 136.804C404.17 135.173 402.045 133.038 400.249 131.157C390.63 121.072 379.77 111.595 370.386 101.359C367.852 98.7827 364.726 95.9469 362.077 93.4148C362.315 85.7743 362.287 78.6383 362.135 70.9929C362.042 66.2665 362.513 62.0055 362.124 57.1567L401.558 57.1469C401.272 52.1463 401.382 47.9783 401.51 42.9973L349.181 43.0169L349.076 137.117C342.762 137.289 336.444 137.308 330.129 137.186C323.821 137.01 313.616 136.5 307.43 137.112C306.893 122.757 307.283 105.679 307.334 91.2059L308.03 0.597503Z" fill="black"/>
<path d="M102.269 0.685606C116.755 0.244808 133.132 0.631776 147.796 0.548514C147.893 46.1515 147.069 91.6515 147.471 137.397C143.233 136.99 131.758 137.382 127.032 137.406C120.984 137.441 111.016 137.044 105.408 137.504C105.161 128.022 105.323 117.923 105.312 108.397L105.293 62.554C96.5486 69.455 86.978 82.0764 78.4246 88.6247C74.3376 88.8255 71.6832 88.757 67.5796 88.5317C59.6526 82.4095 49.0667 68.5734 41.077 62.7989L41.0785 105.698C41.0819 115.665 41.363 127.337 40.8238 137.181C27.9812 137.592 12.0782 136.691 0 137.519L0.453895 0.61709C12.8765 0.808102 30.8967 -0.00986547 42.7598 0.940298C50.9395 8.02245 64.8718 22.319 72.599 30.2436C81.819 21.7068 92.9357 9.8444 102.269 0.685606Z" fill="black"/>
<path d="M561.933 0.74435C576.523 0.538644 591.264 0.597439 605.863 0.582746C606.025 19.8015 605.618 38.9076 605.555 58.1215L605.584 136.858L579.162 136.828C575 136.833 567.565 136.628 563.667 137.161L563.657 110.297L563.696 62.407C555.449 71.2573 545.869 79.6227 537.916 88.5806C533.959 88.7815 530.452 88.7423 526.485 88.6884C517.64 80.3034 508.874 71.2524 500.269 62.5883C499.559 80.7246 500.372 100.159 500.083 118.428C499.985 124.623 500.612 130.466 500.318 136.789C487.898 136.941 471.301 137.137 459.013 136.608C458.567 91.2254 460.12 45.9506 459.659 0.641516C473.372 0.641516 488.28 0.391748 501.831 0.719897L519.355 17.8914C523.669 22.1671 527.288 26.2323 532.103 29.9692C539.699 21.5451 553.754 8.37994 561.933 0.74435Z" fill="black"/>
<path d="M857.166 0.220375C870.106 -0.107774 883.172 0.382025 896.273 0C896.106 8.88452 896.542 17.3429 896.65 26.1785L897.213 74.1225C890.846 80.4113 884.372 86.5873 877.79 92.6458C877.942 92.7487 878.093 92.8564 878.25 92.9593C882.609 95.8147 919.438 132.455 921.984 136.995C907.365 137.803 878.294 137.945 863.558 137.22C853.283 127.557 843.419 116.625 833.399 106.683C828.928 102.245 824.285 97.0538 819.397 93.1601C818.8 82.3655 819.26 67.1971 819.334 56.1527C826.983 55.991 834.633 55.9029 842.288 55.898L856.574 55.9127L856.638 41.2048C839.991 40.906 822.928 41.337 806.179 41.146L806.15 110.234C806.135 118.594 806.698 128.958 806.429 136.838C796.36 136.809 775.511 136.192 766.387 137.117C766.167 128.997 765.99 120.754 766.093 112.634C766.578 75.4302 765.231 37.7568 766.441 0.602414C770.442 0.768937 774.997 0.715021 779.013 0.621964C804.901 0.014643 831.352 1.30278 857.166 0.220375Z" fill="black"/>
<path d="M251.008 0.646492C261.18 1.26361 281.327 0.685648 291.942 0.558306C292.122 17.0784 291.625 33.5349 291.528 50.055L291.241 137.191C270.814 138.17 243.558 137.377 222.608 137.416L191.963 137.475C185.818 137.485 178.188 137.72 172.206 137.078C168.282 133.562 165.203 129.232 162.068 125.015C161.142 108.902 162.722 84.6037 163.105 67.6869C163.589 46.2788 162.482 21.604 163.58 0.764033L169.649 0.695457C179.18 0.259558 192.805 0.666104 202.719 0.607331L202.664 96.9804L250.773 96.8481C250.754 65.6152 250.051 31.6052 251.008 0.646492Z" fill="black"/>
<path d="M709.146 0.666019C722.859 0.705201 736.572 0.661107 750.285 0.528868C750.363 16.2213 750.309 31.9136 750.123 47.606C749.565 76.8554 750.681 107.99 749.56 136.809C718.696 137.166 687.681 136.417 656.797 136.735C648.021 136.823 639.078 136.956 630.312 136.804C627.358 133.615 622.559 128.458 620.145 125.069C621.668 83.7466 621.344 42.1059 621.589 0.768853C623.852 0.812932 626.34 0.724761 628.622 0.695375C637.011 0.450487 653.491 1.36147 661.068 0.51416C661.298 23.3034 661.166 46.0975 660.666 68.8867C660.524 77.9966 660.784 87.459 660.407 96.515L708.984 96.4758C708.49 87.0476 708.95 73.4172 708.955 63.5286C708.911 42.5761 708.975 21.6186 709.146 0.666019Z" fill="black"/>
</svg>
