<svg width="1013" height="143" viewBox="0 0 1013 143" fill="none" xmlns="http://www.w3.org/2000/svg">
<path d="M440.242 0.214334C445.926 0.208211 480.688 -0.29387 484.08 0.759294C485.635 3.60039 484.484 66.6188 484.257 76.3544C481.98 79.52 466.704 92.6234 462.748 96.1319C466.153 100.204 471.545 104.888 475.506 108.611C481.349 114.176 487.154 119.785 492.928 125.425C493.173 131.192 493.332 136.115 493.221 141.914L445.228 141.889C435.12 132.344 425.134 122.663 415.275 112.86C410.062 107.741 402.868 101.208 398.295 95.838C397.78 84.4369 398.181 70.2742 398.186 58.671C411.294 58.6955 424.401 58.6344 437.507 58.4935L439.208 58.2608C440.396 55.7382 439.938 47.27 439.881 44.1778C421.363 43.8166 402.728 44.1594 384.191 44.0369C384.596 55.4748 384.292 68.8414 384.29 80.3895L384.2 141.804C369.303 141.92 354.407 141.951 339.51 141.896C339.343 135.699 339.361 129.374 339.43 123.171C339.881 82.2693 339.467 41.3612 339.5 0.4654C372.975 -0.0673052 406.716 0.416395 440.242 0.214334Z" fill="#FDCE03"/>
<path d="M614.317 0.220398L660.865 0.232656C660.993 8.03954 660.938 16.1035 660.779 23.9104C659.977 63.0979 661.599 102.794 660.356 141.926L616.234 141.987C615.683 135.221 616.05 124.996 616.062 117.887L616.142 74.0459L616.148 64.2797C607.343 72.1172 596.67 83.2489 588.141 91.711C584.351 91.8947 580.016 91.7844 576.183 91.7661C567.188 82.8509 557.667 72.9071 548.182 64.6777L548.225 141.895C533.86 142.171 518.504 141.944 504.108 141.847L504.115 0.422432L546.327 0.220398C547.747 0.318367 549.584 0.397939 550.705 1.34089C561.677 10.6051 571.554 21.6572 582.306 31.2949C588.019 24.6636 607.912 4.64124 614.317 0.220398Z" fill="#FDCE03"/>
<path d="M108.019 0.238808C123.706 0.398007 139.395 0.318398 155.08 0C155.524 5.85976 155.68 14.5728 155.493 20.4693C154.218 60.7712 156.303 101.741 155.154 141.957C140.354 141.859 125.553 141.871 110.753 141.993L110.804 109.615C111.129 94.4847 110.776 79.1342 110.86 63.9613C102.453 72.9071 91.8781 83.2428 82.9716 91.7171C79.4459 91.9436 75.6753 91.8396 72.1246 91.8212C63.703 83.898 51.5009 72.6009 43.7737 64.194C43.2844 89.4944 43.7014 116.375 43.6843 141.755C30.4517 142.33 13.6152 141.877 0.120011 141.871C0.232675 95.3113 0.786199 46.9454 0 0.502057L6.74209 0.189776C16.3265 0.214268 37.3665 -0.355167 45.7232 0.58166C56.0192 10.1765 66.7975 21.3388 77.1608 31.2704C84.1294 23.2247 100.045 7.37216 108.019 0.238808Z" fill="#FDCE03"/>
<path d="M851.67 0.20206L942.885 0.195931C949.517 0.183685 979.22 -0.287793 984.014 0.881709C984.767 5.46787 984.565 19.257 984.675 24.878C985.141 42.0837 985.349 59.2895 985.312 76.5013C982.03 80.5303 969.166 92.0111 964.837 96.0768C969.251 99.5669 972.754 104.165 976.881 107.619C988.882 117.654 1000.89 132.521 1012.76 141.951C991.729 142.042 970.696 142.024 949.658 141.883C941.734 135.228 926.923 119.797 918.828 111.984C915.466 109.462 905.48 99.022 902.418 95.6176C901.579 86.782 902.186 67.1269 902.21 57.5934C915.197 57.3852 928.404 57.4832 941.41 57.4587C941.753 52.7623 941.569 47.0066 941.538 42.2184C923.739 42.0959 905.933 42.1266 888.133 42.298C888.703 53.344 888.268 67.1699 888.237 78.4669C888.072 99.6098 888.207 120.753 888.641 141.889L844.623 141.932L844.647 42.5368L844.629 16.4159C844.623 12.5032 844.372 4.71477 845.021 1.14503C846.901 -0.0183461 849.362 0.232675 851.67 0.20206Z" fill="#FDCE03"/>
<path d="M190.459 0.20816L219.593 0.0918579C219.913 33.0277 218.725 68.0515 219.843 100.718C237.756 100.112 256.326 101.049 274.462 100.467L274.444 0.428581C288.987 0.0611978 304.485 0.171458 319.074 0.244934C319.571 16.4771 318.568 35.1524 318.566 51.9663L318.394 141.908C275.002 141.883 230.376 142.434 187.077 141.816C184.55 139.612 175.95 131.266 175.856 128.137C174.928 97.4361 176.266 66.484 175.875 35.7034C175.728 24.1309 175.76 11.9767 176.17 0.440839L190.459 0.20816Z" fill="#FDCE03"/>
<path d="M721.629 0.208175C724.011 0.281652 723.925 -0.0857193 725.658 0.985814C726.234 4.2494 725.915 22.5144 725.922 27.1435C725.922 51.7091 725.671 76.2809 725.175 100.847C742.772 100.62 763.346 100.185 780.784 100.883C781.421 67.5862 780.594 33.7992 780.98 0.434725C795.136 -0.0245037 810.965 0.244895 825.188 0.342864C824.558 26.4209 824.276 52.5051 824.331 78.5893C824.307 98.6239 823.694 122.118 824.515 141.877C781.225 142.349 737.108 141.877 693.745 141.926C690.31 139.201 685.411 133.378 682.295 129.943C681.138 122.216 682.087 95.7951 682.148 86.1758L682.221 0.404154L721.629 0.208175Z" fill="#FDCE03"/>
</svg>
